# xmcd
#
# Track frame offsets:
#	150
#	17477
#	30592
#	40520
#	54970
#	68417
#	80485
#	92940
#	104017
#	115975
#
# Disc length: 1742 seconds
#
# Revision: 0
# Processed by: cddbd v1.5.2PL0 Copyright (c) Steve Scherf et al.
# Submitted via: EasyCDDAExtractor 8.2.3.1
#
DISCID=7206cc0a
DTITLE=Jack Fox - The Bourbon Cowboy
DYEAR=1900
DGENRE=
TTITLE0=Bourbon Cowboy
TTITLE1=Tell Me Dear
TTITLE2=Music City Blue
TTITLE3=Somewhere In Your Dreamland
TTITLE4=It's Almost Like A Dream
TTITLE5=Hell Raiser
TTITLE6=I'll Be There
TTITLE7=Treasure Beyond Compare
TTITLE8=How Is This Possible
TTITLE9=Visions
EXTD=
EXTT0=
EXTT1=
EXTT2=
EXTT3=
EXTT4=
EXTT5=
EXTT6=
EXTT7=
EXTT8=
EXTT9=
PLAYORDER=
